<?xml version="1.0" standalone="no"?><svg xmlns="http://www.w3.org/2000/svg" viewBox="0 0 1440 320"><path fill="#0099ff" fill-opacity="10" d="M0,160L30,186.7C60,213,120,267,180,277.3C240,288,300,256,360,240C420,224,480,224,540,186.7C600,149,660,75,720,48C780,21,840,43,900,53.3C960,64,1020,64,1080,64C1140,64,1200,64,1260,58.7C1320,53,1380,43,1410,37.3L1440,32L1440,0L1410,0C1380,0,1320,0,1260,0C1200,0,1140,0,1080,0C1020,0,960,0,900,0C840,0,780,0,720,0C660,0,600,0,540,0C480,0,420,0,360,0C300,0,240,0,180,0C120,0,60,0,30,0L0,0Z"></path></svg>